<svg xmlns="http://www.w3.org/2000/svg" viewBox="0 0 800 1000" role="img" aria-label="Intersection — a sample study of shared paths"><defs><linearGradient id="bg" x2="1" y2="1"><stop stop-color="#130d20"/><stop offset=".5" stop-color="#282039"/><stop offset="1" stop-color="#091c1a"/></linearGradient><linearGradient id="violet"><stop stop-color="#311753"/><stop offset=".5" stop-color="#ad8bde"/><stop offset="1" stop-color="#45345b"/></linearGradient><linearGradient id="gold"><stop stop-color="#655033"/><stop offset=".5" stop-color="#e5d2a2"/><stop offset="1" stop-color="#9a7540"/></linearGradient><linearGradient id="emerald" x2="1" y2="1"><stop stop-color="#154836"/><stop offset=".5" stop-color="#80b7a1"/><stop offset="1" stop-color="#224736"/></linearGradient><filter id="grain"><feTurbulence type="fractalNoise" baseFrequency=".75" numOctaves="3" stitchTiles="stitch"/><feColorMatrix type="saturate" values="0"/></filter></defs><path fill="url(#bg)" d="M0 0h800v1000H0z"/><path d="M-74 -60L636 1060" stroke="url(#violet)" stroke-width="1.6" opacity="0.26"/><path d="M596 -60L-124 1060" stroke="url(#gold)" stroke-width="1.3" opacity="0.25"/><path d="M-67 -60L643 1060" stroke="url(#violet)" stroke-width="1.6" opacity="0.26"/><path d="M603 -60L-117 1060" stroke="url(#gold)" stroke-width="1.3" opacity="0.25"/><path d="M-60 -60L650 1060" stroke="url(#violet)" stroke-width="1.6" opacity="0.26"/><path d="M610 -60L-110 1060" stroke="url(#gold)" stroke-width="1.3" opacity="0.25"/><path d="M-53 -60L657 1060" stroke="url(#violet)" stroke-width="1.6" opacity="0.26"/><path d="M617 -60L-103 1060" stroke="url(#gold)" stroke-width="1.3" opacity="0.25"/><path d="M-46 -60L664 1060" stroke="url(#violet)" stroke-width="1.6" opacity="0.26"/><path d="M624 -60L-96 1060" stroke="url(#gold)" stroke-width="1.3" opacity="0.25"/><path d="M-39 -60L671 1060" stroke="url(#violet)" stroke-width="1.6" opacity="0.26"/><path d="M631 -60L-89 1060" stroke="url(#gold)" stroke-width="1.3" opacity="0.25"/><path d="M-32 -60L678 1060" stroke="url(#violet)" stroke-width="1.6" opacity="0.26"/><path d="M638 -60L-82 1060" stroke="url(#gold)" stroke-width="1.3" opacity="0.25"/><path d="M-25 -60L685 1060" stroke="url(#violet)" stroke-width="1.6" opacity="0.26"/><path d="M645 -60L-75 1060" stroke="url(#gold)" stroke-width="1.3" opacity="0.25"/><path d="M-18 -60L692 1060" stroke="url(#violet)" stroke-width="1.6" opacity="0.26"/><path d="M652 -60L-68 1060" stroke="url(#gold)" stroke-width="1.3" opacity="0.25"/><path d="M-11 -60L699 1060" stroke="url(#violet)" stroke-width="1.6" opacity="0.26"/><path d="M659 -60L-61 1060" stroke="url(#gold)" stroke-width="1.3" opacity="0.25"/><path d="M-4 -60L706 1060" stroke="url(#violet)" stroke-width="1.6" opacity="0.26"/><path d="M666 -60L-54 1060" stroke="url(#gold)" stroke-width="1.3" opacity="0.25"/><path d="M3 -60L713 1060" stroke="url(#violet)" stroke-width="1.6" opacity="0.26"/><path d="M673 -60L-47 1060" stroke="url(#gold)" stroke-width="1.3" opacity="0.25"/><path d="M10 -60L720 1060" stroke="url(#violet)" stroke-width="1.6" opacity="0.26"/><path d="M680 -60L-40 1060" stroke="url(#gold)" stroke-width="1.3" opacity="0.25"/><path d="M17 -60L727 1060" stroke="url(#violet)" stroke-width="1.6" opacity="0.26"/><path d="M687 -60L-33 1060" stroke="url(#gold)" stroke-width="1.3" opacity="0.25"/><path d="M24 -60L734 1060" stroke="url(#violet)" stroke-width="1.6" opacity="0.26"/><path d="M694 -60L-26 1060" stroke="url(#gold)" stroke-width="1.3" opacity="0.25"/><path d="M31 -60L741 1060" stroke="url(#violet)" stroke-width="1.6" opacity="0.26"/><path d="M701 -60L-19 1060" stroke="url(#gold)" stroke-width="1.3" opacity="0.25"/><path d="M38 -60L748 1060" stroke="url(#violet)" stroke-width="1.6" opacity="0.26"/><path d="M708 -60L-12 1060" stroke="url(#gold)" stroke-width="1.3" opacity="0.25"/><path d="M45 -60L755 1060" stroke="url(#violet)" stroke-width="1.6" opacity="0.26"/><path d="M715 -60L-5 1060" stroke="url(#gold)" stroke-width="1.3" opacity="0.25"/><path d="M52 -60L762 1060" stroke="url(#violet)" stroke-width="1.6" opacity="0.26"/><path d="M722 -60L2 1060" stroke="url(#gold)" stroke-width="1.3" opacity="0.25"/><path d="M59 -60L769 1060" stroke="url(#violet)" stroke-width="1.6" opacity="0.26"/><path d="M729 -60L9 1060" stroke="url(#gold)" stroke-width="1.3" opacity="0.25"/><path d="M66 -60L776 1060" stroke="url(#violet)" stroke-width="1.6" opacity="0.26"/><path d="M736 -60L16 1060" stroke="url(#gold)" stroke-width="1.3" opacity="0.25"/><path d="M73 -60L783 1060" stroke="url(#violet)" stroke-width="1.6" opacity="0.26"/><path d="M743 -60L23 1060" stroke="url(#gold)" stroke-width="1.3" opacity="0.25"/><path d="M80 -60L790 1060" stroke="url(#violet)" stroke-width="18" opacity="0.6"/><path d="M750 -60L30 1060" stroke="url(#gold)" stroke-width="14" opacity="0.7"/><path d="M87 -60L797 1060" stroke="url(#violet)" stroke-width="1.6" opacity="0.26"/><path d="M757 -60L37 1060" stroke="url(#gold)" stroke-width="1.3" opacity="0.25"/><path d="M94 -60L804 1060" stroke="url(#violet)" stroke-width="1.6" opacity="0.26"/><path d="M764 -60L44 1060" stroke="url(#gold)" stroke-width="1.3" opacity="0.25"/><path d="M101 -60L811 1060" stroke="url(#violet)" stroke-width="1.6" opacity="0.26"/><path d="M771 -60L51 1060" stroke="url(#gold)" stroke-width="1.3" opacity="0.25"/><path d="M108 -60L818 1060" stroke="url(#violet)" stroke-width="1.6" opacity="0.26"/><path d="M778 -60L58 1060" stroke="url(#gold)" stroke-width="1.3" opacity="0.25"/><path d="M115 -60L825 1060" stroke="url(#violet)" stroke-width="1.6" opacity="0.26"/><path d="M785 -60L65 1060" stroke="url(#gold)" stroke-width="1.3" opacity="0.25"/><path d="M122 -60L832 1060" stroke="url(#violet)" stroke-width="1.6" opacity="0.26"/><path d="M792 -60L72 1060" stroke="url(#gold)" stroke-width="1.3" opacity="0.25"/><path d="M129 -60L839 1060" stroke="url(#violet)" stroke-width="1.6" opacity="0.26"/><path d="M799 -60L79 1060" stroke="url(#gold)" stroke-width="1.3" opacity="0.25"/><path d="M136 -60L846 1060" stroke="url(#violet)" stroke-width="1.6" opacity="0.26"/><path d="M806 -60L86 1060" stroke="url(#gold)" stroke-width="1.3" opacity="0.25"/><path d="M143 -60L853 1060" stroke="url(#violet)" stroke-width="1.6" opacity="0.26"/><path d="M813 -60L93 1060" stroke="url(#gold)" stroke-width="1.3" opacity="0.25"/><path d="M150 -60L860 1060" stroke="url(#violet)" stroke-width="1.6" opacity="0.26"/><path d="M820 -60L100 1060" stroke="url(#gold)" stroke-width="1.3" opacity="0.25"/><path d="M157 -60L867 1060" stroke="url(#violet)" stroke-width="1.6" opacity="0.26"/><path d="M827 -60L107 1060" stroke="url(#gold)" stroke-width="1.3" opacity="0.25"/><path d="M164 -60L874 1060" stroke="url(#violet)" stroke-width="1.6" opacity="0.26"/><path d="M834 -60L114 1060" stroke="url(#gold)" stroke-width="1.3" opacity="0.25"/><path d="M171 -60L881 1060" stroke="url(#violet)" stroke-width="1.6" opacity="0.26"/><path d="M841 -60L121 1060" stroke="url(#gold)" stroke-width="1.3" opacity="0.25"/><path d="M178 -60L888 1060" stroke="url(#violet)" stroke-width="1.6" opacity="0.26"/><path d="M848 -60L128 1060" stroke="url(#gold)" stroke-width="1.3" opacity="0.25"/><path d="M185 -60L895 1060" stroke="url(#violet)" stroke-width="1.6" opacity="0.26"/><path d="M855 -60L135 1060" stroke="url(#gold)" stroke-width="1.3" opacity="0.25"/><path d="M192 -60L902 1060" stroke="url(#violet)" stroke-width="1.6" opacity="0.26"/><path d="M862 -60L142 1060" stroke="url(#gold)" stroke-width="1.3" opacity="0.25"/><path d="M199 -60L909 1060" stroke="url(#violet)" stroke-width="1.6" opacity="0.26"/><path d="M869 -60L149 1060" stroke="url(#gold)" stroke-width="1.3" opacity="0.25"/><path d="M206 -60L916 1060" stroke="url(#violet)" stroke-width="1.6" opacity="0.26"/><path d="M876 -60L156 1060" stroke="url(#gold)" stroke-width="1.3" opacity="0.25"/><path d="M213 -60L923 1060" stroke="url(#violet)" stroke-width="1.6" opacity="0.26"/><path d="M883 -60L163 1060" stroke="url(#gold)" stroke-width="1.3" opacity="0.25"/><path d="M220 -60L930 1060" stroke="url(#violet)" stroke-width="1.6" opacity="0.26"/><path d="M890 -60L170 1060" stroke="url(#gold)" stroke-width="1.3" opacity="0.25"/><path d="M227 -60L937 1060" stroke="url(#violet)" stroke-width="1.6" opacity="0.26"/><path d="M897 -60L177 1060" stroke="url(#gold)" stroke-width="1.3" opacity="0.25"/><path d="M234 -60L944 1060" stroke="url(#violet)" stroke-width="1.6" opacity="0.26"/><path d="M904 -60L184 1060" stroke="url(#gold)" stroke-width="1.3" opacity="0.25"/><path d="M0 0h800v1000H0z" filter="url(#grain)" opacity=".07" style="mix-blend-mode:soft-light"/></svg>